<svg width="23.977" xmlns="http://www.w3.org/2000/svg" height="24" fill="none">
  <g class="feather feather-moon" style="fill: rgb(0, 0, 0);">
    <path d="M20.979,12.790C20.542,17.526,16.499,21.104,11.750,20.958C7.001,20.812,3.185,16.992,3.039,12.238C2.894,7.484,6.468,3.438,11.199,3.000C9.141,5.786,9.430,9.660,11.878,12.111C14.326,14.561,18.196,14.850,20.979,12.790ZZ" fill="none" style="fill: none;" class="fills"/>
    <g fill="none" stroke-linejoin="round" class="strokes">
      <path d="M20.979,12.790C20.542,17.526,16.499,21.104,11.750,20.958C7.001,20.812,3.185,16.992,3.039,12.238C2.894,7.484,6.468,3.438,11.199,3.000C9.141,5.786,9.430,9.660,11.878,12.111C14.326,14.561,18.196,14.850,20.979,12.790ZZ" style="fill: none; stroke-width: 2; stroke: currentColor; stroke-opacity: 1;" class="stroke-shape"/>
    </g>
  </g>
</svg>
