<svg version="1.1" xmlns="http://www.w3.org/2000/svg" viewBox="0 0 893 286" width="893" height="286">
  <!-- svg-source:excalidraw -->
  
  <defs>
    <style class="style-fonts">
      @font-face {
        font-family: "Virgil";
        src: url("https://excalidraw.com/Virgil.woff2");
      }
      @font-face {
        font-family: "Cascadia";
        src: url("https://excalidraw.com/Cascadia.woff2");
      }
      @font-face {
        font-family: "Assistant";
        src: url("https://excalidraw.com/Assistant-Regular.woff2");
      }
    </style>
    
  </defs>
  <g stroke-linecap="round" transform="translate(87 101) rotate(0 115.5 44)"><path d="M60.4 5.3 C72.71 2.02, 92.43 1.19, 108.1 0.8 C123.77 0.4, 139.87 1.15, 154.4 2.93 C168.93 4.7, 183.93 7.32, 195.27 11.46 C206.61 15.61, 216.45 22.1, 222.44 27.81 C228.44 33.51, 231.66 39.65, 231.23 45.71 C230.8 51.76, 226.69 58.71, 219.88 64.16 C213.07 69.6, 202.57 74.6, 190.37 78.37 C178.17 82.13, 161.66 85.18, 146.66 86.74 C131.65 88.3, 115.79 88.76, 100.33 87.72 C84.88 86.69, 67.31 83.55, 53.92 80.53 C40.54 77.51, 28.6 74.54, 20.03 69.59 C11.46 64.63, 5.18 56.8, 2.52 50.81 C-0.14 44.81, 0.46 39.27, 4.08 33.63 C7.7 27.99, 12.01 22.16, 24.22 16.97 C36.43 11.78, 65.93 5.13, 77.34 2.5 C88.76 -0.14, 92.25 0.35, 92.73 1.17 M111.43 -0.59 C125.8 -1.56, 142.59 -0.45, 157.17 1.93 C171.74 4.32, 187.94 9.24, 198.87 13.71 C209.8 18.19, 217.35 23.39, 222.74 28.79 C228.13 34.18, 232.1 40.09, 231.21 46.07 C230.31 52.04, 224.76 59.13, 217.37 64.64 C209.98 70.16, 199.24 75.4, 186.85 79.17 C174.46 82.93, 158.2 85.82, 143.03 87.23 C127.86 88.63, 110.99 88.58, 95.82 87.61 C80.65 86.63, 65.07 84.85, 52.02 81.37 C38.97 77.89, 26.25 71.68, 17.52 66.72 C8.79 61.77, 1.93 57.22, -0.35 51.67 C-2.64 46.11, -0.87 39.23, 3.79 33.42 C8.45 27.6, 17.45 21.45, 27.61 16.78 C37.77 12.11, 50.66 8.33, 64.76 5.39 C78.87 2.45, 104.21 -0.18, 112.23 -0.86 C120.26 -1.53, 112.78 0.56, 112.9 1.36" stroke="#1971c2" stroke-width="2" fill="none"></path></g><g transform="translate(140.0625003606002 132.38730162779189) rotate(0 62.266666412353516 12.5)"><text x="62.266666412353516" y="17.52" font-family="Virgil, Segoe UI Emoji" font-size="20px" fill="#1971c2" text-anchor="middle" style="white-space: pre;" direction="ltr" dominant-baseline="alphabetic">Dependencies</text></g><g stroke-linecap="round" transform="translate(479.5 102) rotate(0 115.5 44)"><path d="M123.08 0.39 C137.85 -0.14, 155.47 1.48, 169.36 4.29 C183.25 7.1, 196.67 12.36, 206.43 17.24 C216.18 22.12, 223.99 27.69, 227.88 33.57 C231.77 39.46, 232.45 46.6, 229.77 52.55 C227.09 58.51, 220.77 64.43, 211.79 69.3 C202.82 74.17, 189.15 78.7, 175.91 81.77 C162.67 84.85, 147.81 87.1, 132.36 87.72 C116.9 88.34, 98.33 87, 83.18 85.49 C68.03 83.98, 53.25 82.5, 41.46 78.65 C29.67 74.81, 19.21 67.89, 12.42 62.41 C5.63 56.93, 1.44 51.58, 0.74 45.76 C0.03 39.95, 2.34 33.12, 8.21 27.54 C14.09 21.95, 24.81 16.51, 36.01 12.27 C47.21 8.03, 60.13 3.99, 75.41 2.11 C90.7 0.22, 118.26 0.97, 127.7 0.97 C137.14 0.97, 132.27 1.47, 132.04 2.09 M92.22 1.24 C106.46 -0.38, 123.3 -0.18, 138.62 0.87 C153.95 1.92, 171.35 3.99, 184.17 7.53 C196.98 11.08, 207.81 16.73, 215.54 22.15 C223.27 27.57, 229.01 34.04, 230.54 40.07 C232.06 46.09, 229.56 52.65, 224.69 58.28 C219.82 63.9, 211.59 69.34, 201.34 73.81 C191.08 78.29, 177.53 82.86, 163.14 85.12 C148.76 87.38, 131.11 87.28, 115.04 87.37 C98.96 87.45, 81.07 87.72, 66.69 85.63 C52.31 83.54, 38.85 79.36, 28.77 74.84 C18.69 70.31, 10.89 64.26, 6.21 58.48 C1.53 52.71, -1.04 46.43, 0.68 40.18 C2.41 33.93, 8.44 26.23, 16.55 20.99 C24.67 15.76, 36.64 12.2, 49.39 8.77 C62.14 5.35, 86.16 1.7, 93.07 0.45 C99.98 -0.79, 90.59 0.33, 90.85 1.31" stroke="#2f9e44" stroke-width="2" fill="none"></path></g><g transform="translate(584.0625003606002 123.38730162779189) rotate(0 10.766666412353516 22.5)"><text x="10.766666412353516" y="31.536" font-family="Virgil, Segoe UI Emoji" font-size="36px" fill="#e03131" text-anchor="middle" style="white-space: pre;" direction="ltr" dominant-baseline="alphabetic">X</text></g><g mask="url(#mask-nvLUhagTIo1MSTvqwWs-d)" stroke-linecap="round"><g transform="translate(322 141) rotate(0 77 0)"><path d="M0.83 -0.63 C26.52 -0.86, 128.98 -0.57, 154.34 -0.49 M-0.2 1.65 C25.35 1.51, 127.65 0.89, 153.57 0.8" stroke="#f08c00" stroke-width="2" fill="none"></path></g><g transform="translate(322 141) rotate(0 77 0)"><path d="M130.12 9.46 C136.37 7.14, 143.97 2.13, 153.57 0.8 M130.12 9.46 C137.05 7.43, 144.51 4.96, 153.57 0.8" stroke="#f08c00" stroke-width="2" fill="none"></path></g><g transform="translate(322 141) rotate(0 77 0)"><path d="M130.03 -7.64 C136.43 -4.59, 144.07 -4.24, 153.57 0.8 M130.03 -7.64 C137.05 -4.74, 144.53 -2.28, 153.57 0.8" stroke="#f08c00" stroke-width="2" fill="none"></path></g></g><mask id="mask-nvLUhagTIo1MSTvqwWs-d"><rect x="0" y="0" fill="#fff" width="576" height="241"></rect><rect x="369.375" y="128.5" fill="#000" width="59.25" height="25" opacity="1"></rect></mask><g transform="translate(369.375 128.5) rotate(0 29.693883864018176 12.967862608153155)"><text x="29.625" y="17.52" font-family="Virgil, Segoe UI Emoji" font-size="20px" fill="#f08c00" text-anchor="middle" style="white-space: pre;" direction="ltr" dominant-baseline="alphabetic">Action</text></g><g stroke-linecap="round" transform="translate(10 42) rotate(0 436.5 117)"><path d="M505.69 2.35 C536.2 1.8, 567.89 5.8, 596.78 8.79 C625.68 11.79, 653.04 15.73, 679.06 20.31 C705.07 24.9, 731.19 30.45, 752.86 36.3 C774.52 42.15, 792.9 48.13, 809.05 55.42 C825.2 62.72, 839.43 72.17, 849.75 80.1 C860.07 88.02, 867.38 94.74, 870.97 102.96 C874.57 111.17, 874.72 120.88, 871.32 129.37 C867.92 137.86, 860.41 145.99, 850.57 153.89 C840.72 161.79, 828.32 169.69, 812.24 176.79 C796.17 183.9, 775.71 190.29, 754.13 196.53 C732.55 202.78, 708.48 209.3, 682.76 214.25 C657.05 219.2, 628.86 223.21, 599.84 226.24 C570.82 229.27, 539.54 231.33, 508.64 232.43 C477.75 233.54, 445.75 233.25, 414.44 232.87 C383.13 232.49, 350.88 232.31, 320.8 230.13 C290.73 227.95, 261.58 223.67, 234.01 219.79 C206.43 215.9, 179.43 212.11, 155.35 206.84 C131.28 201.56, 108.6 194.8, 89.58 188.11 C70.55 181.43, 54.3 174.33, 41.2 166.7 C28.1 159.06, 17.79 150.48, 10.99 142.31 C4.18 134.14, 0.54 125.91, 0.37 117.7 C0.2 109.49, 3.34 101.27, 9.96 93.04 C16.58 84.8, 27.19 76.2, 40.09 68.29 C52.99 60.39, 68.5 52.38, 87.38 45.62 C106.27 38.86, 129.42 32.96, 153.4 27.74 C177.38 22.52, 203.77 18.22, 231.29 14.33 C258.8 10.44, 288.46 6.67, 318.49 4.42 C348.53 2.16, 378.54 1.04, 411.5 0.8 C444.45 0.56, 497 2.16, 516.23 2.99 C535.46 3.81, 528.18 4.14, 526.89 5.73 M365.16 1.62 C393.24 -1.61, 428.69 0.25, 460.12 0.81 C491.55 1.38, 523.48 3.01, 553.73 5.02 C583.99 7.03, 613.99 9.14, 641.64 12.88 C669.28 16.63, 695.81 22.1, 719.6 27.47 C743.39 32.85, 765.72 38.32, 784.38 45.13 C803.04 51.94, 818.57 60.59, 831.56 68.35 C844.55 76.1, 855.55 83.46, 862.34 91.66 C869.12 99.86, 871.99 109.1, 872.27 117.54 C872.55 125.97, 870.57 134.21, 864.04 142.26 C857.5 150.31, 846.54 158.39, 833.08 165.84 C819.62 173.28, 802.37 180.11, 783.26 186.91 C764.15 193.7, 742.3 201.02, 718.43 206.62 C694.55 212.23, 667.5 216.89, 640.01 220.54 C612.51 224.19, 583.5 226.52, 553.47 228.53 C523.44 230.54, 491.23 232.05, 459.84 232.6 C428.46 233.15, 395.98 232.89, 365.17 231.81 C334.36 230.73, 303.88 229.06, 274.96 226.12 C246.04 223.18, 217.81 218.99, 191.66 214.17 C165.5 209.35, 139.36 203.43, 118.05 197.21 C96.74 190.98, 79.83 183.72, 63.81 176.81 C47.79 169.91, 32.18 163.6, 21.93 155.77 C11.67 147.94, 5.57 138.54, 2.3 129.84 C-0.98 121.14, -1.06 112.02, 2.25 103.55 C5.57 95.07, 12.03 86.81, 22.19 78.99 C32.35 71.17, 47.11 63.78, 63.22 56.61 C79.34 49.45, 97.62 42.16, 118.89 36.01 C140.17 29.85, 164.9 24.37, 190.89 19.69 C216.88 15.02, 245.47 10.8, 274.85 7.94 C304.24 5.08, 351.82 2.97, 367.18 2.54 C382.55 2.1, 366.06 3.67, 367.03 5.33" stroke="#1e1e1e" stroke-width="2" fill="none"></path></g><g stroke-linecap="round"><g transform="translate(611 51) rotate(0 11.5 -11.5)"><path d="M0.38 0.36 C4.43 -3.34, 19.29 -18.58, 23.24 -22.36 M-0.88 -0.5 C3.12 -4.54, 18.29 -20.18, 22.42 -24.15" stroke="#1e1e1e" stroke-width="2" fill="none"></path></g></g><mask></mask><g transform="translate(637 10) rotate(0 23.483333587646484 12.5)"><text x="0" y="17.52" font-family="Virgil, Segoe UI Emoji" font-size="20px" fill="#1e1e1e" text-anchor="start" style="white-space: pre;" direction="ltr" dominant-baseline="alphabetic">Alias</text></g></svg>