<svg version="1.1" xmlns="http://www.w3.org/2000/svg" viewBox="0 0 893 286" width="893" height="286">
  <!-- svg-source:excalidraw -->
  
  <defs>
    <style class="style-fonts">
      @font-face {
        font-family: "Virgil";
        src: url("https://excalidraw.com/Virgil.woff2");
      }
      @font-face {
        font-family: "Cascadia";
        src: url("https://excalidraw.com/Cascadia.woff2");
      }
      @font-face {
        font-family: "Assistant";
        src: url("https://excalidraw.com/Assistant-Regular.woff2");
      }
    </style>
    
  </defs>
  <g stroke-linecap="round" transform="translate(87 101) rotate(0 115.5 44)"><path d="M72.16 3.27 C85.38 0.41, 104.05 -0.78, 119.61 -0.67 C135.17 -0.56, 151.41 1.07, 165.52 3.93 C179.64 6.78, 193.97 11.79, 204.3 16.46 C214.63 21.12, 223.3 26.38, 227.53 31.92 C231.76 37.46, 232.05 43.94, 229.68 49.7 C227.32 55.47, 221.65 61.23, 213.34 66.51 C205.04 71.78, 192.85 78.02, 179.87 81.34 C166.89 84.66, 150.99 85.64, 135.47 86.44 C119.95 87.24, 102 87.3, 86.75 86.14 C71.51 84.97, 56.08 83.05, 43.99 79.47 C31.9 75.88, 21.46 70.01, 14.21 64.61 C6.96 59.22, 1.6 52.9, 0.49 47.09 C-0.62 41.28, 2.31 35.49, 7.57 29.77 C12.84 24.05, 19.81 17.35, 32.07 12.78 C44.34 8.2, 71.6 4.09, 81.16 2.32 C90.73 0.55, 89.12 1.48, 89.47 2.16 M135.68 -0.49 C150.79 -0.34, 168.39 2.73, 181.34 6.25 C194.28 9.77, 205.38 15.27, 213.36 20.65 C221.33 26.03, 226.77 32.58, 229.18 38.54 C231.59 44.5, 231.85 50.7, 227.84 56.42 C223.82 62.13, 215.4 68.27, 205.1 72.83 C194.8 77.39, 180.39 81.41, 166.05 83.76 C151.7 86.12, 134.67 86.56, 119.03 86.94 C103.4 87.32, 86.59 88.25, 72.22 86.03 C57.86 83.81, 43.81 78.14, 32.85 73.62 C21.9 69.11, 12.05 64.31, 6.48 58.95 C0.9 53.59, -1.62 47.43, -0.58 41.47 C0.45 35.51, 5.02 28.6, 12.68 23.2 C20.34 17.79, 33.03 12.72, 45.4 9.04 C57.76 5.36, 71.74 2.27, 86.88 1.12 C102.01 -0.03, 128.14 2.15, 136.18 2.16 C144.23 2.17, 135.64 0.45, 135.15 1.16" stroke="#1971c2" stroke-width="2" fill="none"></path></g><g transform="translate(140.06250036060027 132.38730162779189) rotate(0 62.266666412353516 12.5)"><text x="62.266666412353516" y="17.52" font-family="Virgil, Segoe UI Emoji" font-size="20px" fill="#1971c2" text-anchor="middle" style="white-space: pre;" direction="ltr" dominant-baseline="alphabetic">Dependencies</text></g><g stroke-linecap="round" transform="translate(479.5 102) rotate(0 115.5 44)"><path d="M154.31 2.75 C169.01 4.21, 185.23 9, 196.45 13.09 C207.66 17.17, 215.82 21.78, 221.61 27.27 C227.39 32.75, 231.52 40.01, 231.15 46 C230.77 51.99, 226.17 58.03, 219.36 63.2 C212.54 68.37, 202.18 73.09, 190.26 77.03 C178.35 80.96, 162.94 84.99, 147.86 86.81 C132.79 88.62, 115.34 88.98, 99.81 87.93 C84.28 86.88, 68.12 83.85, 54.68 80.53 C41.24 77.2, 28.07 72.87, 19.15 67.96 C10.23 63.05, 3.78 56.69, 1.17 51.08 C-1.44 45.46, -0.27 39.87, 3.49 34.25 C7.25 28.62, 14.15 22.12, 23.72 17.33 C33.29 12.54, 47.07 8.52, 60.9 5.52 C74.73 2.53, 88.65 -0.57, 106.69 -0.65 C124.73 -0.73, 156.71 3.33, 169.14 5.04 C181.57 6.75, 182.22 9.13, 181.27 9.61 M79.85 2.05 C93.73 -0.15, 114.29 0.27, 130.21 1.15 C146.12 2.02, 162.2 4.36, 175.34 7.3 C188.48 10.24, 199.94 14.31, 209.04 18.81 C218.14 23.31, 226.75 28.44, 229.96 34.3 C233.17 40.16, 231.96 48.21, 228.3 53.98 C224.65 59.76, 217.32 64.02, 208.03 68.96 C198.73 73.9, 186.42 80.62, 172.52 83.63 C158.62 86.64, 140.34 86.47, 124.62 87.03 C108.9 87.6, 92.9 88.98, 78.21 87.04 C63.52 85.1, 47.99 79.66, 36.5 75.38 C25.01 71.11, 15.3 66.86, 9.26 61.4 C3.21 55.94, 0.1 48.5, 0.21 42.64 C0.32 36.77, 3.44 31.46, 9.92 26.21 C16.4 20.96, 27.32 15.4, 39.11 11.14 C50.9 6.88, 73.34 2.16, 80.66 0.65 C87.97 -0.86, 82.13 1.2, 82.99 2.07" stroke="#2f9e44" stroke-width="2" fill="none"></path></g><g transform="translate(554.2625011235397 133.38730162779189) rotate(0 40.56666564941406 12.5)"><text x="40.56666564941406" y="17.52" font-family="Virgil, Segoe UI Emoji" font-size="20px" fill="#2f9e44" text-anchor="middle" style="white-space: pre;" direction="ltr" dominant-baseline="alphabetic">Targets</text></g><g mask="url(#mask-8bgbrAEDp2pP32T-V6DYS)" stroke-linecap="round"><g transform="translate(322 141) rotate(0 77 0)"><path d="M-1.1 -0.04 C24.67 0, 128.65 -0.19, 154.42 -0.08 M0.53 -1.11 C26.19 -0.84, 128.36 1.46, 153.7 1.42" stroke="#f08c00" stroke-width="2" fill="none"></path></g><g transform="translate(322 141) rotate(0 77 0)"><path d="M130.1 9.69 C136.78 8.25, 143.43 4.49, 153.7 1.42 M130.1 9.69 C138.89 5.9, 146.28 4.49, 153.7 1.42" stroke="#f08c00" stroke-width="2" fill="none"></path></g><g transform="translate(322 141) rotate(0 77 0)"><path d="M130.31 -7.41 C136.87 -3.98, 143.47 -2.88, 153.7 1.42 M130.31 -7.41 C139.12 -5.17, 146.43 -0.55, 153.7 1.42" stroke="#f08c00" stroke-width="2" fill="none"></path></g></g><mask id="mask-8bgbrAEDp2pP32T-V6DYS"><rect x="0" y="0" fill="#fff" width="576" height="241"></rect><rect x="369.375" y="128.5" fill="#000" width="59.25" height="25" opacity="1"></rect></mask><g transform="translate(369.375 128.5) rotate(0 29.289294096082415 12.655207766547846)"><text x="29.625" y="17.52" font-family="Virgil, Segoe UI Emoji" font-size="20px" fill="#f08c00" text-anchor="middle" style="white-space: pre;" direction="ltr" dominant-baseline="alphabetic">Action</text></g><g stroke-linecap="round" transform="translate(10 42) rotate(0 436.5 117)"><path d="M628.82 11.47 C658.61 13.16, 685.08 20.42, 709.55 25.82 C734.02 31.22, 756.04 37.23, 775.65 43.84 C795.27 50.46, 813.36 58, 827.24 65.52 C841.11 73.05, 851.4 81.05, 858.9 88.98 C866.41 96.9, 871.34 104.89, 872.28 113.06 C873.21 121.22, 870.1 129.5, 864.52 137.98 C858.94 146.46, 851.1 155.99, 838.79 163.94 C826.49 171.9, 809.05 179.16, 790.69 185.72 C772.32 192.28, 751.7 197.84, 728.6 203.31 C705.49 208.77, 679.14 214.13, 652.04 218.51 C624.94 222.89, 595.82 227.03, 566 229.57 C536.18 232.1, 504.45 233.01, 473.13 233.72 C441.81 234.43, 408.98 234.96, 378.07 233.82 C347.15 232.69, 316.8 229.75, 287.64 226.9 C258.47 224.05, 229.63 221.15, 203.08 216.72 C176.52 212.29, 150.46 206.35, 128.29 200.33 C106.13 194.31, 87.06 187.85, 70.1 180.59 C53.13 173.32, 37.34 164.68, 26.49 156.72 C15.64 148.76, 9.24 140.89, 4.97 132.83 C0.71 124.77, -1.58 116.73, 0.89 108.38 C3.36 100.04, 10.62 90.86, 19.79 82.75 C28.97 74.63, 40.78 66.84, 55.92 59.7 C71.07 52.56, 89.8 46.28, 110.64 39.91 C131.48 33.53, 155.72 26.38, 180.97 21.47 C206.22 16.55, 233.26 13.79, 262.13 10.42 C290.99 7.05, 323.43 3.08, 354.16 1.25 C384.89 -0.58, 415.42 -1.01, 446.51 -0.54 C477.59 -0.07, 506.4 1.39, 540.68 4.08 C574.97 6.76, 630.64 12.72, 652.2 15.57 C673.77 18.42, 673.67 19.47, 670.08 21.18 M548.6 2.73 C579.21 2.66, 609.16 7.82, 636.75 11.79 C664.33 15.77, 690.34 20.88, 714.1 26.59 C737.86 32.3, 760 39.35, 779.29 46.05 C798.58 52.76, 816.36 59.5, 829.84 66.82 C843.33 74.14, 853.23 81.82, 860.18 89.96 C867.13 98.1, 870.92 107.16, 871.54 115.65 C872.17 124.14, 870.2 132.97, 863.93 140.91 C857.66 148.84, 846.66 155.5, 833.95 163.27 C821.23 171.05, 806.09 180.51, 787.65 187.55 C769.21 194.59, 746.72 200, 723.3 205.49 C699.88 210.99, 674.51 216.37, 647.13 220.53 C619.75 224.68, 589.35 228.18, 559.03 230.43 C528.71 232.68, 496.75 233.79, 465.23 234.03 C433.72 234.27, 400.99 233.06, 369.96 231.88 C338.93 230.69, 307.77 229.54, 279.05 226.92 C250.34 224.3, 223.36 221.09, 197.65 216.14 C171.93 211.19, 146.7 203.55, 124.77 197.22 C102.83 190.89, 82.6 184.88, 66.02 178.16 C49.44 171.43, 35.89 164.76, 25.28 156.88 C14.67 148.99, 6.11 139.22, 2.38 130.87 C-1.35 122.52, -0.2 115.25, 2.89 106.77 C5.97 98.29, 11.24 87.9, 20.9 79.99 C30.57 72.07, 45.28 66.39, 60.89 59.29 C76.5 52.19, 93.74 43.68, 114.56 37.4 C135.38 31.12, 159.8 26.61, 185.82 21.61 C211.84 16.61, 241.44 10.5, 270.7 7.41 C299.97 4.32, 330.98 4.26, 361.41 3.07 C391.84 1.89, 422.04 0.01, 453.29 0.31 C484.55 0.61, 533.68 3.86, 548.93 4.9 C564.19 5.94, 546.96 5.06, 544.81 6.55" stroke="#1e1e1e" stroke-width="2" fill="none"></path></g><g stroke-linecap="round"><g transform="translate(611 51) rotate(0 11.5 -11.5)"><path d="M-0.77 -1.06 C3.07 -5.01, 20.14 -19.75, 24.01 -23.29 M1.03 1 C4.71 -2.81, 20.19 -17.69, 23.58 -21.9" stroke="#1e1e1e" stroke-width="2" fill="none"></path></g></g><mask></mask><g transform="translate(638 10) rotate(0 20.566667556762695 12.5)"><text x="0" y="17.52" font-family="Virgil, Segoe UI Emoji" font-size="20px" fill="#1e1e1e" text-anchor="start" style="white-space: pre;" direction="ltr" dominant-baseline="alphabetic">Rule</text></g><g stroke-linecap="round"><g transform="translate(394 163) rotate(0 0 15.5)"><path d="M0.24 -0.19 C0.17 4.84, 0 25.33, -0.04 30.6" stroke="#1971c2" stroke-width="2.5" fill="none" stroke-dasharray="1.5 8"></path></g></g><mask></mask><g transform="translate(369 201) rotate(0 23.483333587646484 12.5)"><text x="0" y="17.52" font-family="Virgil, Segoe UI Emoji" font-size="20px" fill="#1971c2" text-anchor="start" style="white-space: pre;" direction="ltr" dominant-baseline="alphabetic">Alias</text></g></svg>